<?xml version="1.0" encoding="utf-8"?>
<!-- Generator: Adobe Illustrator 23.0.2, SVG Export Plug-In . SVG Version: 6.00 Build 0)  -->
<svg version="1.1" id="Laag_1" xmlns="http://www.w3.org/2000/svg" xmlns:xlink="http://www.w3.org/1999/xlink" x="0px" y="0px"
	 viewBox="0 0 85.04 198.43" style="enable-background:new 0 0 85.04 198.43;" xml:space="preserve">
<style type="text/css">
	.st0{fill:none;stroke:#000000;stroke-width:3;stroke-miterlimit:10;}
	.st1{font-family:'Oganesson';}
	.st2{font-size:9.638px;}
</style>
<path class="st0" d="M75.04,29.31H4.09c-0.62,0-1.11-0.55-1.03-1.17L5.71,7.13c0,0,0.27-2.15,23.96-2.15l3.77,15.62h46.4
	c1.08,0,1.96,0.88,1.96,1.96v0C81.8,26.29,78.77,29.31,75.04,29.31z"/>
<path class="st0" d="M29.67,4.98h36.06c0,0,9.97,0.97,9.97,6.16v2.18H31.68L29.67,4.98z"/>
<path class="st0" d="M66.11,30.62c-0.28-0.79-0.92-1.31-1.63-1.31H42.42H20.37c-0.71,0-1.36,0.51-1.63,1.31l-3.42,9.7
	c-0.5,1.42,0.36,2.99,1.63,2.99h25.47h25.47c1.27,0,2.13-1.57,1.63-2.99L66.11,30.62z"/>
<path class="st0" d="M3.05,30.71v35.95c0,0.77,0.63,1.4,1.42,1.4h75.91c0.78,0,1.42-0.63,1.42-1.4V30.71c0-0.77-0.63-1.4-1.42-1.4
	H4.47C3.69,29.31,3.05,29.94,3.05,30.71z"/>
<line class="st0" x1="55.41" y1="68.06" x2="55.41" y2="42.41"/>
<path class="st0" d="M11.85,68.06c-6.21,0-10.5-5.83-7.89-10.93c0.03-0.06,0.06-0.12,0.09-0.18c1.55-2.95,4.78-4.87,8.36-5.17
	c8.65-0.72,29.46-1.61,40.09,5.17c5.4,3.44,2.76,11.12-3.84,11.12L11.85,68.06z"/>
<path class="st0" d="M24.4,30.16l-1.94,5.89c-0.29,0.89,0.26,1.85,1.06,1.85h37.6c0.8,0,1.34-0.97,1.04-1.85l-2.06-5.91
	c-0.17-0.5-0.58-0.82-1.04-0.82H25.44C24.98,29.31,24.56,29.65,24.4,30.16z"/>
<path class="st0" d="M81.8,70.38v19.69c0,1.28-1.32,2.32-2.95,2.32H6.01c-1.63,0-2.95-1.04-2.95-2.32V70.38
	c0-1.28,1.32-2.32,2.95-2.32l72.84,0C80.47,68.06,81.8,69.1,81.8,70.38z"/>
<path class="st0" d="M5.85,99.71h73.14c1.55,0,2.8,1.25,2.8,2.8v7.24c0,1.55-1.25,2.8-2.8,2.8H5.85c-1.55,0-2.8-1.25-2.8-2.8v-7.24
	C3.05,100.96,4.31,99.71,5.85,99.71z"/>
<ellipse class="st0" cx="41.96" cy="106.13" rx="10.49" ry="6.42"/>
<line class="st0" x1="31.47" y1="106.13" x2="52.44" y2="106.13"/>
<ellipse class="st0" cx="41.83" cy="126.88" rx="10.49" ry="6.42"/>
<line class="st0" x1="31.35" y1="126.88" x2="52.32" y2="126.88"/>
<text transform="matrix(1 0 0 1 66.2087 109.7474)" class="st1 st2">1</text>
<text transform="matrix(1 0 0 1 65.03 130.3777)" class="st1 st2">2</text>
<path class="st0" d="M5.95,120.45h73.14c1.55,0,2.8,1.25,2.8,2.8v7.24c0,1.55-1.25,2.8-2.8,2.8H5.95c-1.55,0-2.8-1.25-2.8-2.8v-7.24
	C3.15,121.71,4.4,120.45,5.95,120.45z"/>
<path class="st0" d="M21.8,134.71c0,3.17-2.57,5.73-5.73,5.73s-5.73-2.57-5.73-5.73c0-3.17,2.57,0,5.73,0S21.8,131.54,21.8,134.71z"
	/>
<path class="st0" d="M74.51,134.71c0,3.17-2.57,5.73-5.73,5.73c-3.17,0-5.73-2.57-5.73-5.73c0-3.17,2.57,0,5.73,0
	C71.95,134.71,74.51,131.54,74.51,134.71z"/>
</svg>
