<?xml version="1.0" encoding="utf-8"?>
<!-- Generator: Adobe Illustrator 23.0.2, SVG Export Plug-In . SVG Version: 6.00 Build 0)  -->
<svg version="1.1" id="Laag_1" xmlns="http://www.w3.org/2000/svg" xmlns:xlink="http://www.w3.org/1999/xlink" x="0px" y="0px"
	 viewBox="0 0 85.04 85.04" style="enable-background:new 0 0 85.04 85.04;" xml:space="preserve">
<style type="text/css">
	.st0{fill:#FFFFFF;stroke:#000000;stroke-width:3;stroke-miterlimit:10;}
	.st1{font-family:'AvantGarde-CondBold';}
	.st2{font-size:15.5491px;}
	.st3{letter-spacing:0.93;}
</style>
<path class="st0" d="M53.06,62.68"/>
<path class="st0" d="M8.45,15.16v33.85c0,0.91,0.39,1.77,1.05,2.31l14.36,11.76c0.65,0.53,1.03,1.37,1.03,2.27v11.32
	c0,1.71,1.24,3.09,2.76,3.09h46.01c1.61,0,2.92-1.46,2.92-3.26V15.16c0-1.59-1.15-2.87-2.57-2.87h-63
	C9.6,12.29,8.45,13.57,8.45,15.16z"/>
<line class="st0" x1="8.45" y1="24.2" x2="76.59" y2="24.2"/>
<path class="st0" d="M71.2,6.11H44.18c-0.92,0-1.66,0.75-1.66,1.66v4.51h30.35V7.78C72.87,6.86,72.12,6.11,71.2,6.11z"/>
<line class="st0" x1="23.99" y1="64.34" x2="56.8" y2="64.34"/>
<text transform="matrix(1.0717 0 0 1 19.8446 49.5512)" class="st1 st2 st3">CMYK</text>
</svg>
