<?xml version="1.0" encoding="utf-8"?>
<!-- Generator: Adobe Illustrator 23.0.2, SVG Export Plug-In . SVG Version: 6.00 Build 0)  -->
<svg version="1.1" id="Laag_1" xmlns="http://www.w3.org/2000/svg" xmlns:xlink="http://www.w3.org/1999/xlink" x="0px" y="0px"
	 viewBox="0 0 85.04 85.04" style="enable-background:new 0 0 85.04 85.04;" xml:space="preserve">
<style type="text/css">
	.st0{fill:none;stroke:#000000;stroke-width:3;stroke-miterlimit:10;}
</style>
<path class="st0" d="M75.6,6.57H9.44c-2.76,0-5,2.24-5,5v20.9v1.38V57.9c0,2.76,2.24,5,5,5H75.6c2.76,0,5-2.24,5-5V37v-1.38V11.57
	C80.6,8.81,78.36,6.57,75.6,6.57z"/>
<path class="st0" d="M64.98,80.37c-16.17,0-18.02-8.75-18.23-11.07c-0.03-0.32-0.3-0.56-0.62-0.56h-7.15c0,0,0.39,11.63-18.25,11.63
	"/>
<line class="st0" x1="4.44" y1="48.54" x2="80.6" y2="48.54"/>
</svg>
