<?xml version="1.0" encoding="utf-8"?>
<!-- Generator: Adobe Illustrator 23.0.2, SVG Export Plug-In . SVG Version: 6.00 Build 0)  -->
<svg version="1.1" id="Laag_1" xmlns="http://www.w3.org/2000/svg" xmlns:xlink="http://www.w3.org/1999/xlink" x="0px" y="0px"
	 viewBox="0 0 85.04 85.04" style="enable-background:new 0 0 85.04 85.04;" xml:space="preserve">
<style type="text/css">
	.st0{fill:none;stroke:#000000;stroke-width:3;stroke-miterlimit:10;}
	.st1{fill:none;stroke:#E2DD1E;stroke-width:3;stroke-miterlimit:10;}
</style>
<g>
	<path class="st0" d="M4.73,69.86c-0.37,5.78,4.2,10.58,9.9,10.58h63.08c1.57,0,2.84-1.27,2.84-2.84V63.43
		c0-1.57-1.27-2.84-2.84-2.84H56.42"/>
	<path class="st0" d="M5.49,74.37c2.26,5.33,8.51,7.57,13.6,5l56.39-28.37c1.38-0.69,1.93-2.37,1.24-3.75l-6.41-12.74
		c-0.69-1.38-2.37-1.93-3.75-1.24"/>
	<path class="st0" d="M56.42,22.19c0.82-1.31,0.42-3.04-0.9-3.86L43.43,10.8c-1.31-0.82-3.04-0.42-3.86,0.9"/>
	<path class="st0" d="M8.84,78.57"/>
	<path class="st0" d="M4.71,7.45l0,62.73c0,5.28,3.99,9.9,9.26,10.24c5.78,0.37,10.58-4.2,10.58-9.9V7.45
		c0-1.57-1.28-2.85-2.85-2.85H7.56C5.98,4.6,4.71,5.88,4.71,7.45z"/>
	<circle class="st0" cx="14.63" cy="70.21" r="3.56"/>
</g>
<line class="st0" x1="39.58" y1="11.7" x2="24.55" y2="35.82"/>
<line class="st0" x1="66.57" y1="33.29" x2="41.6" y2="45.85"/>
<line class="st0" x1="56.42" y1="22.19" x2="23.86" y2="74.17"/>
<path class="st1" d="M77.71,60.6"/>
</svg>
