<?xml version="1.0" encoding="utf-8"?>
<!-- Generator: Adobe Illustrator 23.0.2, SVG Export Plug-In . SVG Version: 6.00 Build 0)  -->
<svg version="1.1" id="Laag_1" xmlns="http://www.w3.org/2000/svg" xmlns:xlink="http://www.w3.org/1999/xlink" x="0px" y="0px"
	 viewBox="0 0 85.04 85.04" style="enable-background:new 0 0 85.04 85.04;" xml:space="preserve">
<style type="text/css">
	.st0{fill:none;stroke:#000000;stroke-width:3;stroke-miterlimit:10;}
</style>
<path class="st0" d="M54.68,17.54V7.93c0-1.81-1.47-3.29-3.29-3.29h-27.7c-1.77,0-3.21,1.44-3.21,3.21v57.11
	c0,1.77,1.44,3.21,3.21,3.21h7.66"/>
<path class="st0" d="M34.19,17.54h28.44c1.61,0,2.91,1.3,2.91,2.91v57.78c0,1.57-1.27,2.84-2.84,2.84H34.19
	c-1.57,0-2.84-1.27-2.84-2.84V20.39C31.35,18.82,32.62,17.54,34.19,17.54z"/>
<path class="st0" d="M33.68,17.54L53.23,6.5c0.63-0.36,1.45,0.06,1.45,0.74v10.3H34.2C34.05,17.54,33.56,17.61,33.68,17.54z"/>
</svg>
