<?xml version="1.0" encoding="utf-8"?>
<!-- Generator: Adobe Illustrator 23.0.2, SVG Export Plug-In . SVG Version: 6.00 Build 0)  -->
<svg version="1.1" id="Laag_1" xmlns="http://www.w3.org/2000/svg" xmlns:xlink="http://www.w3.org/1999/xlink" x="0px" y="0px"
	 viewBox="0 0 85.04 85.04" style="enable-background:new 0 0 85.04 85.04;" xml:space="preserve">
<style type="text/css">
	.st0{fill:none;stroke:#000000;stroke-width:3;stroke-miterlimit:10;}
</style>
<path class="st0" d="M75.75,15.1H9.59c-2.76,0-5,2.24-5,5v20.9v1.38v24.04c0,2.76,2.24,5,5,5h66.16c2.76,0,5-2.24,5-5v-20.9v-1.38
	V20.09C80.75,17.33,78.51,15.1,75.75,15.1z"/>
<g>
	<path class="st0" d="M19.7,58.4h45.47c0.75,0,1.19-0.8,0.77-1.39L55.71,42.58c-0.27-0.38-0.84-0.43-1.18-0.11l-6.97,6.67
		c-0.49,0.47-1.3,0.41-1.71-0.13L32.35,31.15c-0.3-0.4-0.94-0.34-1.16,0.1L18.59,56.71C18.2,57.49,18.8,58.4,19.7,58.4z"/>
	<circle class="st0" cx="62.71" cy="32.29" r="4.17"/>
</g>
</svg>
