<?xml version="1.0" encoding="utf-8"?>
<!-- Generator: Adobe Illustrator 23.0.2, SVG Export Plug-In . SVG Version: 6.00 Build 0)  -->
<svg version="1.1" id="Laag_1" xmlns="http://www.w3.org/2000/svg" xmlns:xlink="http://www.w3.org/1999/xlink" x="0px" y="0px"
	 viewBox="0 0 85.04 85.04" style="enable-background:new 0 0 85.04 85.04;" xml:space="preserve">
<style type="text/css">
	.st0{fill:#FFFFFF;stroke:#000000;stroke-width:3;stroke-miterlimit:10;}
	.st1{fill:none;stroke:#000000;stroke-width:3;stroke-miterlimit:10;}
</style>
<line class="st0" x1="7.56" y1="4.63" x2="78.35" y2="4.63"/>
<ellipse class="st1" cx="7.95" cy="13.92" rx="3.31" ry="9.32"/>
<line class="st0" x1="7.92" y1="23.24" x2="77.52" y2="23.24"/>
<path class="st1" d="M77.52,4.6c1.83,0,3.31,4.17,3.31,9.32s-1.48,9.32-3.31,9.32"/>
<ellipse class="st1" cx="7.73" cy="45.52" rx="3.31" ry="9.32"/>
<path class="st1" d="M56.39,80.03h-36c-1.63,0-2.95-1.32-2.95-2.95V23.24h53.49v41.33c0,0.97-0.36,1.9-1.01,2.62L59.71,78.55
	C58.86,79.49,57.65,80.03,56.39,80.03z"/>
<path class="st1" d="M59.36,78.94l11.12-12.36c0.17-0.19,0.04-0.49-0.22-0.49h-9.04c-1.57,0-2.85,1.27-2.85,2.85v9.63
	C58.38,79.08,59.01,79.32,59.36,78.94z"/>
<line class="st0" x1="7.73" y1="36.2" x2="17.43" y2="36.2"/>
<line class="st0" x1="17.43" y1="54.84" x2="7.73" y2="54.84"/>
<path class="st1" d="M70.92,54.84h6.38c1.83,0,3.31-4.17,3.31-9.32s-1.48-9.32-3.31-9.32h-6.38V54.84z"/>
</svg>
