<?xml version="1.0" encoding="utf-8"?>
<!-- Generator: Adobe Illustrator 23.0.2, SVG Export Plug-In . SVG Version: 6.00 Build 0)  -->
<svg version="1.1" id="Laag_1" xmlns="http://www.w3.org/2000/svg" xmlns:xlink="http://www.w3.org/1999/xlink" x="0px" y="0px"
	 viewBox="0 0 85.04 85.04" style="enable-background:new 0 0 85.04 85.04;" xml:space="preserve">
<style type="text/css">
	.st0{fill:none;stroke:#000000;stroke-width:3;stroke-miterlimit:10;}
</style>
<path class="st0" d="M80.91,36.69V19.76c0-1.64-1.27-2.96-2.84-2.96H6.81c-1.61,0-2.91,1.36-2.91,3.03v16.85
	c0,1.64,1.27,2.96,2.84,2.96h10.79"/>
<polyline class="st0" points="12.85,39.65 12.85,73.45 3.9,73.45 "/>
<line class="st0" x1="12.85" y1="73.45" x2="22.2" y2="73.45"/>
<polyline class="st0" points="72.76,38.8 72.76,72.6 63.8,72.6 "/>
<line class="st0" x1="72.76" y1="72.6" x2="82.11" y2="72.6"/>
<path class="st0" d="M67.28,49.63V27.6H17.93v32.2c0,1.31,1.26,2.38,2.82,2.38h35.06"/>
<path class="st0" d="M80.91,23.67v13.59c0,1.32-1.18,2.39-2.63,2.39h-10"/>
<line class="st0" x1="17.93" y1="27.6" x2="12.85" y2="27.6"/>
<line class="st0" x1="67.28" y1="27.6" x2="72.76" y2="27.6"/>
<path class="st0" d="M12.86,16.18l59.9-0.02l0-6.04c0-1.33-1.08-2.4-2.41-2.4L15.26,7.74c-1.33,0-2.4,1.08-2.4,2.41L12.86,16.18z"/>
<path class="st0" d="M56.08,61.99L67.2,49.63c0.17-0.19,0.04-0.49-0.22-0.49h-9.04c-1.57,0-2.85,1.27-2.85,2.85v9.63
	C55.1,62.13,55.74,62.38,56.08,61.99z"/>
</svg>
