<?xml version="1.0" encoding="utf-8"?>
<!-- Generator: Adobe Illustrator 23.0.2, SVG Export Plug-In . SVG Version: 6.00 Build 0)  -->
<svg version="1.1" id="Laag_1" xmlns="http://www.w3.org/2000/svg" xmlns:xlink="http://www.w3.org/1999/xlink" x="0px" y="0px"
	 viewBox="0 0 85.04 85.04" style="enable-background:new 0 0 85.04 85.04;" xml:space="preserve">
<style type="text/css">
	.st0{fill:none;stroke:#000000;stroke-width:3;stroke-miterlimit:10;}
</style>
<path class="st0" d="M78.32,60.42V6.84c0-1.55-1.26-2.81-2.81-2.81H33.93c-1.55,0-2.81,1.26-2.81,2.81v33.74"/>
<path class="st0" d="M72.03,60.42v-17c0-1.57-1.27-2.84-2.84-2.84H6.87c-1.57,0-2.84,1.27-2.84,2.84v28.23
	c0,1.57,1.27,2.84,2.84,2.84h43.09"/>
<path class="st0" d="M78.74,81.03H52.21c-1.24,0-2.25-1.01-2.25-2.25v-16.1c0-1.24,1.01-2.25,2.25-2.25h26.52
	c1.24,0,2.25,1.01,2.25,2.25v16.1C80.99,80.02,79.98,81.03,78.74,81.03z"/>
<path class="st0" d="M34.53,49.2v7.19c0,0.63-0.51,1.15-1.15,1.15H13.2c-0.63,0-1.15-0.51-1.15-1.15V49.2
	c0-0.63,0.51-1.15,1.15-1.15h20.19C34.02,48.06,34.53,48.57,34.53,49.2z"/>
<rect x="57.39" y="2.35" transform="matrix(6.123234e-17 -1 1 6.123234e-17 45.1671 72.3487)" width="2.74" height="22.48"/>
<rect x="63.03" y="14.02" transform="matrix(6.123234e-17 -1 1 6.123234e-17 44.7687 84.0211)" width="2.74" height="11.2"/>
<circle cx="70.7" cy="68.33" r="2.98"/>
<path d="M66.23,74.64c0-1.84,2-3.33,4.48-3.33s4.48,1.49,4.48,3.33s-2,1.41-4.48,1.41S66.23,76.48,66.23,74.64z"/>
</svg>
