<?xml version="1.0" encoding="utf-8"?>
<!-- Generator: Adobe Illustrator 23.0.2, SVG Export Plug-In . SVG Version: 6.00 Build 0)  -->
<svg version="1.1" id="Laag_1" xmlns="http://www.w3.org/2000/svg" xmlns:xlink="http://www.w3.org/1999/xlink" x="0px" y="0px"
	 viewBox="0 0 85.04 85.04" style="enable-background:new 0 0 85.04 85.04;" xml:space="preserve">
<style type="text/css">
	.st0{fill:none;stroke:#000000;stroke-width:3;stroke-miterlimit:10;}
</style>
<path class="st0" d="M12.57,68.08c-1.6,0-2.89-1.3-2.89-2.89V7.43c0-1.55,1.26-2.81,2.81-2.81h41.58c1.55,0,2.81,1.26,2.81,2.81
	v9.13"/>
<path class="st0" d="M75.43,28.41v48.65c0,1.64-1.33,2.97-2.97,2.97H31.19c-1.64,0-2.97-1.33-2.97-2.97V19.37
	c0-1.55,1.26-2.81,2.81-2.81h31.35"/>
<path class="st0" d="M75.25,27.75L62.88,16.63c-0.19-0.17-0.49-0.04-0.49,0.22v10.12c0,0.97,0.79,1.76,1.76,1.76h10.72
	C75.39,28.74,75.63,28.1,75.25,27.75z"/>
<line class="st0" x1="12.57" y1="68.08" x2="28.23" y2="68.08"/>
</svg>
