<?xml version="1.0" encoding="utf-8"?>
<!-- Generator: Adobe Illustrator 23.0.2, SVG Export Plug-In . SVG Version: 6.00 Build 0)  -->
<svg version="1.1" id="Laag_1" xmlns="http://www.w3.org/2000/svg" xmlns:xlink="http://www.w3.org/1999/xlink" x="0px" y="0px"
	 viewBox="0 0 85.04 85.04" style="enable-background:new 0 0 85.04 85.04;" xml:space="preserve">
<style type="text/css">
	.st0{fill:none;stroke:#000000;stroke-width:3;stroke-miterlimit:10;}
</style>
<path class="st0" d="M4.44,52.98V30.7c0-2.76,2.24-5,5-5H75.6c2.76,0,5,2.24,5,5v25.43"/>
<path class="st0" d="M18.31,48.65h48.41v25.07c0,1.57-1.27,2.84-2.84,2.84H21.16c-1.57,0-2.84-1.27-2.84-2.84V48.65z"/>
<path class="st0" d="M21.16,8.47h42.66c1.61,0,2.91,1.3,2.91,2.91V25.7H18.31V11.31C18.31,9.74,19.59,8.47,21.16,8.47z"/>
<line class="st0" x1="29.14" y1="65.57" x2="55.9" y2="65.57"/>
<line class="st0" x1="29.14" y1="57.67" x2="55.9" y2="57.67"/>
<path class="st0" d="M4.44,52.98v3.14c0,2.76,2.24,5,5,5h8.87"/>
<path class="st0" d="M80.6,56.12c0,2.76-2.24,5-5,5h-8.87"/>
</svg>
