<?xml version="1.0" encoding="utf-8"?>
<!-- Generator: Adobe Illustrator 23.0.2, SVG Export Plug-In . SVG Version: 6.00 Build 0)  -->
<svg version="1.1" id="Laag_1" xmlns="http://www.w3.org/2000/svg" xmlns:xlink="http://www.w3.org/1999/xlink" x="0px" y="0px"
	 viewBox="0 0 85.04 85.04" style="enable-background:new 0 0 85.04 85.04;" xml:space="preserve">
<style type="text/css">
	.st0{fill:none;stroke:#000000;stroke-width:3;stroke-miterlimit:10;}
</style>
<path class="st0" d="M13.31,71.52l-2.89-2.74c-0.15-0.14-0.4-0.09-0.49,0.1L5.25,79.38c-0.18,0.39,0.24,0.79,0.63,0.59l10.25-5.22
	c0.19-0.09,0.22-0.35,0.07-0.49L13.31,71.52z"/>
<path class="st0" d="M16.76,74.29l36.61-38.54l-6.39-6.07L10.37,68.22c-0.14,0.15-0.13,0.38,0.01,0.52l5.86,5.57
	C16.39,74.44,16.62,74.44,16.76,74.29z"/>
<path class="st0" d="M75.4,6.15C71.46,2.41,50.12,24.7,46.64,28.39c-0.27,0.28-0.26,0.72,0,0.97l7.07,6.71
	c0.27,0.25,0.7,0.23,0.97-0.05C58.18,32.35,79.34,9.89,75.4,6.15"/>
<rect x="57.48" y="30.33" transform="matrix(0.6887 -0.7251 0.7251 0.6887 -4.7988 54.5491)" class="st0" width="7.3" height="5.06"/>
<path class="st0" d="M74.43,25.72c-1.62-1.54-2.54-0.52-2.54-0.52l-2.08,2.19l-3.7,3.89L52.29,45.84c0,0-1.25,1.44,0.28,2.9
	c1.53,1.45,2.91,0.13,2.91,0.13L69.3,34.31l3.7-3.89l2.08-2.19C75.08,28.23,76.05,27.26,74.43,25.72z"/>
</svg>
