<svg id="Laag_1" data-name="Laag 1" xmlns="http://www.w3.org/2000/svg" viewBox="0 0 79.79 76.57"><defs><style>.cls-1{fill:none;stroke:#1d1d1b;stroke-miterlimit:10;stroke-width:3px;}</style></defs><title>Textiel_icon</title><path class="cls-1" d="M70.75,12S66,6,54.38,5.73a.77.77,0,0,0-.76.68c-.23,2.33-1.73,9.83-11.1,9.83s-10.87-7.5-11.1-9.83a.77.77,0,0,0-.76-.68C19.09,6,14.29,12,14.29,12L4.93,21.3a2.78,2.78,0,0,0,.16,4.07L14,32.94a2.82,2.82,0,0,0,3.83-.15L21.31,29c.05,0,.43-.06.43,0V76.9a2.4,2.4,0,0,0,2.4,2.41H60.9a2.4,2.4,0,0,0,2.4-2.41V29a.08.08,0,0,1,.13-.05l3.81,3.82a2.82,2.82,0,0,0,3.83.15l8.87-7.57a2.78,2.78,0,0,0,.17-4.07Z" transform="translate(-2.62 -4.23)"/></svg>