<?xml version="1.0" encoding="utf-8"?>
<!-- Generator: Adobe Illustrator 23.0.2, SVG Export Plug-In . SVG Version: 6.00 Build 0)  -->
<svg version="1.1" id="Laag_1" xmlns="http://www.w3.org/2000/svg" xmlns:xlink="http://www.w3.org/1999/xlink" x="0px" y="0px"
	 viewBox="0 0 85.04 85.04" style="enable-background:new 0 0 85.04 85.04;" xml:space="preserve">
<style type="text/css">
	.st0{fill:none;stroke:#000000;stroke-width:3;stroke-miterlimit:10;}
	.st1{font-family:'AvantGarde-CondBold';}
	.st2{font-size:15.5491px;}
	.st3{letter-spacing:0.93;}
</style>
<path class="st0" d="M56.24,65.9V24.03c0-1.75-1.17-3.16-2.61-3.16H42.7h-0.72H29.42c-1.44,0-2.61,1.42-2.61,3.16V65.9"/>
<path class="st0" d="M41.52,81.61c8.13,0,14.72-7.04,14.72-15.72H26.8C26.8,74.58,33.39,81.61,41.52,81.61z"/>
<path class="st0" d="M53.3,20.86V4.51c0-0.68-0.94-1.24-2.09-1.24h-8.74h-0.58H31.83c-1.15,0-2.09,0.55-2.09,1.24v16.35"/>
<line class="st0" x1="37.52" y1="8.66" x2="37.52" y2="15.48"/>
<line class="st0" x1="45.52" y1="8.66" x2="45.52" y2="15.48"/>
<text transform="matrix(6.562488e-17 -1.0717 1 6.123234e-17 47.2538 59.4292)" class="st1 st2 st3">USB</text>
</svg>
