<?xml version="1.0" encoding="UTF-8"?>
<!DOCTYPE svg PUBLIC "-//W3C//DTD SVG 1.1//EN" "http://www.w3.org/Graphics/SVG/1.1/DTD/svg11.dtd">
<!-- Creator: CorelDRAW 2018 (64-Bit) -->
<svg xmlns="http://www.w3.org/2000/svg" xml:space="preserve" width="297mm" height="210mm" version="1.1" style="shape-rendering:geometricPrecision; text-rendering:geometricPrecision; image-rendering:optimizeQuality; fill-rule:evenodd; clip-rule:evenodd"
viewBox="0 0 29700 21000"
 xmlns:xlink="http://www.w3.org/1999/xlink">
 <defs>
  <style type="text/css">
   <![CDATA[
    .fil0 {fill:#2B2A29}
   ]]>
  </style>
 </defs>
 <g id="Laag_x0020_1">
  <metadata id="CorelCorpID_0Corel-Layer"/>
  <g id="_1984025396544">
   <path class="fil0" d="M16258.69 10619.32l-213.69 0c-352.5,0 -344.68,86.73 -534.22,213.66 5.07,-228.33 234.05,-493.34 390.44,-571.1 431.28,-214.47 394.81,301.58 593.27,-368.26 147.82,-498.9 415.86,-899.82 803.42,-1155.26 369.51,-243.53 978.77,-428.19 1487.09,-324.41 447.08,91.24 1070.87,370.76 1070.87,887.81 0,235.64 -139.09,507.73 -284.94,605.37 18.61,-79.88 35.63,-81.88 35.63,-178.06l0 -35.59c0,-606.72 -1108.25,-955.59 -1686.13,-760.01 -600.91,203.39 -1246.6,585.67 -1305.59,1294.13l1460.25 0c320.78,0 352.22,-162.98 534.25,-284.87 -16.33,196.08 -383.24,645.81 -642.69,675 -200.86,22.58 -1221.35,-30.78 -1305.27,15.29 -194.45,106.69 336.83,721.23 425.63,796.17 198.36,167.36 603.43,400.85 952.46,400.85l320.56 0c497.65,0 891.25,-264.14 1181.94,-491.87 293.01,-229.55 608.57,-747.47 812.53,-896.91 -17.49,209.84 -106.85,320.4 -106.85,605.37l0 71.22c0,451.87 306.08,890.25 747.91,890.25l71.25 0c1030.21,0 122.42,-1165.9 96.21,-1378.33l-523.62 203.21c170.78,-233.02 598.87,-367.73 723.07,-827.13l950.87 -383.59c-143.19,213.78 -498.63,554.14 -498.63,890.22l0 35.62c0,327.79 320.57,609.6 320.57,925.84 0,414.02 -227.67,670.19 -566,784.5 -308.3,68.69 -543.38,68.72 -828.82,0 -431.19,-161.82 -816.87,-576.97 -848.96,-962.53 -304.52,350.28 -600.47,770.12 -1089.9,962.53 -236.73,82.42 -953.89,114.51 -1245.49,0 -271.59,-93.58 -493.28,-242.46 -665.9,-418.83 -123.55,-126.27 -280.81,-386.78 -370.92,-554.99 -59.65,-111.35 -128.52,-665.3 -260.6,-665.3z"/>
   <path class="fil0" d="M13099.66 11414.04l0 -142.44c0,-465.32 428.03,-916.24 805.08,-1046.73 487.39,-168.68 1153.76,17.76 1153.76,512.57l0 142.44c0,220.13 -144.28,478.51 -391.78,569.75 -202.74,72.09 -625.39,150.41 -994.62,-0.91l-109.44 -355.18c175.53,46.85 233.05,178.06 498.62,178.06l35.6 0c232.42,0 391.78,-177.41 391.78,-427.31l0 -35.63c0,-235.67 -261.92,-391.72 -498.63,-391.72 -563.52,0 -802.01,797.92 -434.82,1289.38 150.01,200.74 448.9,333.64 727.45,287.88 510.11,-83.79 412.05,-213.91 669,-402.13 -39.57,475.29 -387.44,747.81 -890.38,747.81 -538.13,0 -961.62,-392.75 -961.62,-925.84z"/>
   <path class="fil0" d="M10895.39 7236.42l0 -142.44c0,-465.31 428.03,-916.24 805.08,-1046.73 487.39,-168.68 1153.76,17.77 1153.76,512.57l0 142.44c0,220.13 -144.28,478.52 -391.78,569.75 -202.74,72.1 -625.39,150.41 -994.62,-0.91l-109.44 -355.18c175.53,46.85 233.04,178.06 498.62,178.06l35.59 0c232.43,0 391.79,-177.41 391.79,-427.31l0 -35.63c0,-235.67 -261.92,-391.72 -498.63,-391.72 -563.52,0 -802.01,797.92 -434.82,1289.39 150.01,200.73 448.9,333.63 727.45,287.87 510.11,-83.79 412.05,-213.9 669,-402.13 -39.57,475.29 -387.44,747.81 -890.38,747.81 -538.13,0 -961.62,-392.75 -961.62,-925.84z"/>
   <path class="fil0" d="M4042.57 7200.79c0,-705.8 498.69,-1210.71 1210.94,-1210.71 253.97,0 890.37,251.06 890.37,391.71 0,127.65 -275.33,329.23 -320.53,498.53 -261.35,-69.78 -270.36,-380.14 -924.84,-431.97 -376.83,-29.81 -562.8,407.67 -394.34,789.44 118.85,269.3 452.49,562.47 792.5,507.45 199.02,-32.19 386.25,-64.06 539.48,-139.97 122.67,-60.77 398.03,-248.12 455.24,-261.41l-40.66 391.09c-269.74,72 -490.78,498.53 -1032.84,498.53l-71.22 0c-571.16,0 -1104.1,-446.83 -1104.1,-1032.69z"/>
   <path class="fil0" d="M8096.53 7593.76c-253.53,189.04 -297.66,669.81 -926.21,468.1 -311.9,-100.09 -670.28,-480.26 -670.28,-861.07l0 -356.09c0,-499.78 549.11,-854.62 1068.47,-854.62 261.01,0 431.94,121.85 617.07,219.91l-260.92 492.27c-196.57,-45.79 -451.17,-284.87 -747.93,-284.87 -811.78,0 -311.43,1139.5 320.56,1139.5l142.47 0c218.06,0 498.72,-701.15 584.07,-911.58 320.6,-790.23 218.13,-325.98 840.52,-655.23 0,370.98 -320.53,991.36 -320.53,1459.99 0,196.14 86.04,282.44 249.31,320.47l0 71.22c-456.55,0 -532.68,253.54 -781.46,320.06l-115.14 -568.06z"/>
   <path class="fil0" d="M17754.56 7948.6c0,-510.35 475.29,-1350.77 392.19,-1706.93l-392.19 68.9 0 -71.25c224.92,-52.38 628.15,-284.87 747.91,-284.87 156.35,0 160.95,42.76 213.72,142.44 161.26,-37.57 373.1,-178.03 534.21,-178.03 94.52,0 265.52,345.14 321.44,435l248.41 -43.29c-50.45,188.92 -237.87,287.35 -454.56,330.67 -292.88,58.49 -354.4,-62.18 -542.66,-188.23 -85.79,368.11 -476.64,1170.37 -335.73,1463.75l-732.74 352.31 0 -320.47z"/>
   <path class="fil0" d="M22590.96 7557.2c-236.65,163.02 -377.43,533.84 -811.84,533.84l-71.25 0c-580.16,0 -961.62,-392.69 -961.62,-961.47l0 -71.21c0,-580.51 581.26,-1103.91 1139.71,-1103.91 193.7,0 712.32,165.02 712.32,284.87 0,115.36 -186.51,462.94 -249.32,462.94 -60.58,0 -398.16,-320.47 -747.93,-320.47l-35.63 0c-213.03,0 -463,214.5 -463,427.32l0 35.59c0,378.99 325.69,819.03 676.72,819.03 620.95,0 1091.58,-988.99 1149.29,-1536.38l631.49 -208.49 0 106.81c0,447.86 -320.56,864.51 -320.56,1460 0,404.23 253.72,210.62 -160.55,409.23 -155.95,74.79 -335.17,238.05 -462.94,268.11l-24.89 -605.81z"/>
   <path class="fil0" d="M19998.34 6203.73l0 -35.62c0,-96.15 -17.01,-98.18 -35.62,-178.03l106.84 0c333.26,0 376.2,-124.65 605.47,-178.07l0 213.66c0,434.41 -320.53,877.39 -320.53,1388.78 0,157.04 52.82,289.66 106.84,391.72l-16.95 -34.91 -659.74 355.38c-366.41,-268.4 213.69,-1402.17 213.69,-1922.91z"/>
   <path class="fil0" d="M19891.5 5171.04l0 -71.21c311.43,-25.9 382.64,-195.14 569.84,-320.47l-32.84 23.99 373.45 488.3 -554.3 413.55c-19.83,-238.24 -152.13,-479.67 -356.15,-534.16z"/>
   <path class="fil0" d="M8921.91 4031.55c0,426.12 423.78,569.75 854.75,569.75l320.56 0c156.05,0 284.91,-910.62 284.91,-1103.91 0,-825 -1460.22,-163.08 -1460.22,534.16zm2261.8 8226.89c100.84,78.32 450.05,122.61 659.76,0 127.8,-84.73 238.06,-193.01 319.44,-214.75l39.07 214.75 190.91 40.85 95.81 -8.69 386.52 -211.28c-13.89,-166.96 -71.22,-176.09 -71.22,-356.09l0 -142.44c0,-865.89 569.85,-1603.63 569.85,-2279.03l0 -356.09c0,-121.61 -101.5,-448.74 -142.47,-534.16 -626.27,331.35 -1740.87,854.66 -2671.16,854.66l-178.09 0c-5.85,-263.58 -100.24,-828.82 -156.64,-1089.74 -55.58,-257.26 -306.36,-795.42 -306.36,-940.01 0,-81.73 426,-64.59 615.07,-275.31 85.11,-94.89 335.11,-477.29 346.55,-614.94 -165.83,60.02 -144.5,178.06 -427.37,178.06l-320.56 0c0,-104.37 237.83,-825 289.5,-992.53 127.52,-413.55 34.25,-679.87 472.6,-773.8 522.4,-111.91 1608.63,-441.48 2087.15,-441.48l320.56 0c579.38,0 369.2,813.31 284.9,1175.12l-534.21 0 -165.46 503.07 557.89 19.33c-96.55,211.53 -285.59,1150.13 -285.59,1471.73l0 35.62c0,453.71 427.66,739.68 832.89,655.26 334.04,-69.59 780.05,-405.45 912.26,-655.26 157.67,105.56 180.22,274.02 414.62,404.48 151.25,84.2 371.73,200.87 582.6,200.87 512.29,0 594.27,-395.32 854.78,-569.75 0,188.32 14.98,569.75 178.1,569.75 21.98,0 203.17,-183.67 269.83,-228.74 141.34,-95.55 195.92,-95.92 335.63,-162.95 -99.55,-148.66 -213.71,-94.08 -213.71,-320.5l0 -142.44c0,-418.77 288.53,-897.1 320.56,-1281.93 -8.51,1.97 -575.91,219.84 -590.27,228.85 -45.32,28.4 -215.22,483.11 -250.31,568.78 -130.27,318.19 -365.98,876.02 -762.14,876.02l-35.59 0c-284.63,0 -783.57,-482.17 -783.57,-783.41l0 -213.65c0,-301.55 300.52,-380.4 568.53,-319.25 209.19,47.73 567.88,319.25 606.79,319.25 90.14,0 273.42,-409.49 320.56,-498.56 -82.1,-122.58 -259.6,-213.66 -463.03,-213.66l-284.91 0c-845.96,0 -1104.09,608.1 -1104.09,1353.19 -105.78,157.95 -306.68,356.09 -569.84,356.09l-106.85 0c-256.38,0 -463,-258.88 -463,-534.16l0 -35.59c0,-323.1 123.64,-916.27 249.31,-1103.9l534.22 0 36.79 26.24 533.9 -748.03 -36.44 -26.03c-439.26,321.79 -305.67,263.89 -961.62,249.28 63.8,-132.99 178.06,-742.99 178.06,-961.46 0,-433.54 -404.35,-569.75 -819.15,-569.75l-213.69 0c-729.77,0 -1734.59,503.69 -2528.69,569.75 44.92,-539.66 284.91,-965.72 284.91,-1566.81 0,-233.05 -313.34,-356.1 -569.84,-356.1 -789.82,0 -1887.63,749.13 -1887.63,1495.59 0,575.48 957.94,783.41 1567.09,783.41l-340.58 1633.74 -264.76 12.7 -307.05 603.81c427.38,826.45 291.16,840.77 103.5,1855.22 -46.36,250.66 -129.02,163.8 -374.05,104.06 -163.83,-39.94 -301.92,-80.85 -458.18,-111.63 -315.81,-62.21 -626.68,-180.34 -931.26,-244.02 -845.2,-176.66 -1184.78,-116.01 -1957.65,91.92 -491.87,132.34 -1291.04,477.11 -1524.62,825.88 -186.75,259.2 -170.33,541.16 -64.37,890.25 86.24,278.43 519.99,719.07 719.29,840.8 306.18,187.01 737.21,238.71 1188.54,147.72 720.85,-145.31 1663.18,-596.8 2430.41,-596.8 76.45,0 232.68,46.13 284.91,71.22 -28.96,-124.39 -71.22,-119.92 -71.22,-249.28l0 -213.66c0,-179.37 169.84,-391.72 -35.62,-391.72 -1259.61,0 -3444.74,1594.06 -4273.84,356.1 75.22,-904.05 1910.8,-1459.97 2991.68,-1459.97 332.64,0 764.39,55.67 1059.93,115.35 277.78,56.11 640.56,205.12 934.54,205.12 0,482.8 -92.43,838.2 -72.56,1390.12 13.1,364.23 210.65,956.53 428.71,1102.56 434.95,-291.19 819.16,-1294.76 819.16,-2029.75l0 -320.49c331.98,-7.39 805.46,-40.32 1242.71,-110.66 210.35,-33.85 410.77,-71.47 623.65,-124.27 193.38,-47.95 484.26,-235.11 484.26,-49.95l0 356.09c0,509.92 -185.94,986.71 -341.92,1367.39 -161.86,395.03 -219.44,947.24 -762.14,947.24l-106.84 0c-278.25,0 -712.31,-416.65 -712.31,-712.19l0 -35.59c0,-296.39 168.05,-427.32 463,-427.32 213.21,0 592.01,202.37 747.9,284.88l337.33 -559.49c-235.43,-28.46 -448.58,-188.32 -764.7,-188.32l-178.07 0c-448.01,0 -890.4,516.95 -890.4,997.06l0 71.22c0,337.79 310.05,739.74 659.11,926.93zm-1158.61 -2982.55l-346.12 -1023.55 -53.17 15.36 -133.8 959.9 533.09 48.29zm-568.97 168.31c-95.96,411.89 97.43,1215.53 356.16,1388.78 157.79,-115.57 284.93,-669.28 284.93,-961.47l0 -142.44c0,-122.76 -26.36,-137.87 -35.62,-249.25l-356.16 0c-122.79,0 -137.9,-26.33 -249.31,-35.62z"/>
   <path class="fil0" d="M17540.87 4921.8c-1419.52,0 -2455.12,-641.22 -3027.34,-1495.63 94.9,25.34 633.43,338.86 761.58,413.71 172.49,100.77 637.52,281.06 841.08,334.13 619.32,161.49 1279.59,284.85 2065.75,284.85 1519.26,0 2983.77,-569.75 4345.09,-569.75l356.15 0c1184.7,0 2504.07,901.7 2816.09,1935.66 67.13,186.73 100.87,342.49 100.87,518.93 0,176.4 -44.07,368.32 -100.87,539.56 -417.71,1207.28 -2602.37,1073.01 -2602.37,1777.53l0 35.63c0,235.17 269.27,356.09 498.59,356.09l106.85 0c183.85,0 267.42,-48.89 356.15,-142.44 -5.35,241.06 -264.51,219.32 -494.06,289.41 -181.5,55.43 -421.83,129.68 -610,173.5 -534.44,-357.82 -172.9,-1000.32 192.26,-1267.77 191.89,-140.53 460.56,-227.14 686.7,-346.08 262.98,-138.28 394.6,-252.38 610.28,-422.5 1008.64,-795.6 830.86,-1939.92 -156.63,-2607.72 -2214.48,-1497.57 -4171.07,192.89 -6746.17,192.89z"/>
  </g>
 </g>
</svg>
